<?xml version="1.0" encoding="utf-8"?>
<!-- Generator: Adobe Illustrator 13.0.0, SVG Export Plug-In . SVG Version: 6.00 Build 14948)  -->
<!DOCTYPE svg PUBLIC "-//W3C//DTD SVG 1.1//EN" "http://www.w3.org/Graphics/SVG/1.1/DTD/svg11.dtd">
<svg version="1.1" xmlns="http://www.w3.org/2000/svg" xmlns:xlink="http://www.w3.org/1999/xlink" x="0px" y="0px"
	 width="47.625px" height="47.625px" viewBox="0 0 47.625 47.625" enable-background="new 0 0 47.625 47.625" xml:space="preserve">
<g id="Layer_2">
	<circle fill="#FFFFFF" cx="24.25" cy="23.938" r="22.313"/>
</g>
<g id="Layer_1">
	<g>
		<polygon fill="#213B66" points="25,23.869 38.675,23.869 28.452,20.418 		"/>
		<polygon fill="#213B66" points="21.548,20.418 25,23.869 25,10.193 		"/>
		<path fill="#213B66" d="M24.354,0.646c-12.826,0-23.223,10.396-23.223,23.223s10.396,23.223,23.223,23.223
			c12.825,0,23.223-10.396,23.223-23.223S37.18,0.646,24.354,0.646z M23.856,4.186h0.729l0.573,1.012
			c0.164,0.291,0.323,0.637,0.45,0.947h0.009c-0.036-0.365-0.049-0.736-0.049-1.154V4.186h0.573v2.762h-0.654l-0.591-1.064
			c-0.164-0.297-0.349-0.65-0.479-0.977h-0.017c0.021,0.369,0.029,0.758,0.029,1.211v0.83h-0.574V4.186z M7.74,25.25H7.065
			l-0.233-1.188c-0.054-0.279-0.099-0.537-0.132-0.854H6.691c-0.049,0.311-0.094,0.574-0.159,0.854L6.271,25.25H5.586l-0.655-2.762
			h0.668l0.208,1.135c0.062,0.332,0.119,0.689,0.164,0.967h0.009c0.046-0.299,0.109-0.631,0.18-0.975l0.233-1.127h0.664l0.222,1.164
			c0.062,0.322,0.107,0.619,0.147,0.926h0.009c0.04-0.307,0.102-0.631,0.159-0.963l0.225-1.127h0.636L7.74,25.25z M24.837,43.551
			c-0.316,0-0.628-0.086-0.784-0.172l0.127-0.514c0.164,0.088,0.427,0.174,0.693,0.174c0.286,0,0.438-0.119,0.438-0.299
			c0-0.172-0.131-0.271-0.462-0.385c-0.459-0.164-0.763-0.418-0.763-0.82c0-0.471,0.396-0.828,1.045-0.828
			c0.315,0,0.541,0.061,0.705,0.139l-0.14,0.502c-0.107-0.055-0.308-0.133-0.574-0.133c-0.271,0-0.4,0.127-0.4,0.268
			c0,0.176,0.151,0.254,0.512,0.389c0.488,0.18,0.713,0.436,0.713,0.824C25.946,43.156,25.595,43.551,24.837,43.551z M28.981,27.852
			L25,39.645l-3.982-11.793L9.224,23.869l11.794-3.98L25,8.092l3.981,11.797l11.794,3.98L28.981,27.852z M42.021,22.488h1.7V23
			h-1.078v0.574h1.018v0.508h-1.018v0.656h1.136v0.512h-1.758V22.488z"/>
		<polygon fill="#213B66" points="21.548,27.322 25,23.869 11.324,23.869 		"/>
		<polygon fill="#213B66" points="28.451,27.322 28.452,27.322 25,23.869 25,37.543 		"/>
	</g>
	<g>
		<path fill="#213B66" d="M172.132,0.646c-12.825,0-23.223,10.396-23.223,23.223s10.397,23.223,23.223,23.223
			s23.223-10.396,23.223-23.223S184.957,0.646,172.132,0.646z M186.164,25.043l-0.002,0.002c0.976,0.01,2.161,0.189,3.111,0.871
			c1.978,1.418,2.182,4.451,2.182,4.451s-3.116-0.232-5.093-1.65c-1.214-0.869-1.717-1.979-1.925-2.709
			c-3.276,1.729-10.679,5.182-17.584,5.182c-9.211,0-14.045-6.146-14.045-6.146s4.356-5.52,12.666-6.088
			c0.145-0.123,0.297-0.246,0.46-0.363c2.448-1.752,6.308-2.041,6.308-2.041s-0.095,1.355-0.698,2.818
			c5.34,1,10.355,3.371,12.894,4.713c0.208-0.73,0.711-1.844,1.925-2.713c1.977-1.416,5.093-1.648,5.093-1.648
			s-0.204,3.033-2.182,4.451c-0.95,0.682-2.137,0.863-3.112,0.871H186.164z"/>
		<circle fill="#213B66" cx="159.392" cy="25.045" r="1.316"/>
	</g>
	<g>
		<path fill="#213B66" d="M253.795,23.604c-2.156,1.889-4.883,2.916-7.774,2.916c-2.894,0-5.618-1.027-7.776-2.914
			c-2.154,1.887-4.879,2.914-7.773,2.914c-2.846,0-5.527-0.998-7.668-2.828c-0.001,0.061-0.005,0.119-0.005,0.178
			c0,1.207,0.092,2.391,0.27,3.547c0.127,0.051,0.247,0.125,0.349,0.23c1.873,1.93,4.378,2.992,7.055,2.992
			c2.678,0,5.183-1.063,7.054-2.992c0.376-0.391,1.062-0.391,1.44,0c1.873,1.93,4.379,2.992,7.056,2.992s5.182-1.063,7.055-2.992
			c0.189-0.197,0.449-0.305,0.72-0.305c0.271,0,0.532,0.107,0.721,0.305c1.872,1.93,4.377,2.992,7.054,2.992
			s5.183-1.063,7.056-2.992c0.102-0.105,0.222-0.18,0.349-0.23c0.178-1.156,0.27-2.34,0.27-3.547c0-0.059-0.004-0.117-0.005-0.178
			c-2.141,1.83-4.823,2.828-7.669,2.828C258.676,26.52,255.951,25.492,253.795,23.604z"/>
		<path fill="#213B66" d="M230.471,24.514c2.678,0,5.183-1.063,7.054-2.992c0.376-0.389,1.062-0.389,1.44,0
			c1.873,1.93,4.379,2.992,7.056,2.992s5.182-1.063,7.055-2.992c0.189-0.195,0.449-0.305,0.72-0.305
			c0.271,0,0.532,0.109,0.721,0.305c1.872,1.93,4.377,2.992,7.054,2.992s5.183-1.063,7.056-2.992
			c0.133-0.137,0.298-0.211,0.469-0.256c-0.119-1.07-0.309-2.121-0.568-3.145c-2.012,1.473-4.417,2.277-6.956,2.277
			c-2.893,0-5.617-1.029-7.774-2.918c-2.157,1.889-4.884,2.918-7.774,2.918c-2.892,0-5.618-1.029-7.776-2.918
			c-2.155,1.889-4.88,2.918-7.773,2.918c-2.539,0-4.943-0.805-6.955-2.277c-0.26,1.023-0.449,2.074-0.568,3.145
			c0.171,0.045,0.336,0.119,0.469,0.256C225.289,23.451,227.794,24.514,230.471,24.514z"/>
		<path fill="#213B66" d="M253.795,29.727c-2.156,1.891-4.883,2.918-7.774,2.918c-2.894,0-5.618-1.027-7.776-2.916
			c-2.154,1.889-4.879,2.916-7.773,2.916c-2.425,0-4.732-0.725-6.686-2.07c2.877,9.557,11.742,16.518,22.235,16.518
			s19.358-6.961,22.235-16.518c-1.954,1.346-4.262,2.07-6.687,2.07C258.676,32.645,255.951,31.617,253.795,29.727z"/>
		<path fill="#213B66" d="M237.524,15.398c0.376-0.389,1.062-0.389,1.44,0c1.873,1.93,4.379,2.992,7.056,2.992
			c2.676,0,5.182-1.063,7.055-2.992c0.189-0.195,0.449-0.305,0.72-0.305c0.271,0,0.531,0.109,0.721,0.305
			c1.873,1.93,4.378,2.992,7.054,2.992c2.345,0,4.558-0.814,6.33-2.314c-3.203-8.99-11.788-15.43-21.879-15.43
			s-18.676,6.439-21.879,15.43c1.772,1.5,3.985,2.314,6.329,2.314C233.147,18.391,235.652,17.328,237.524,15.398z"/>
	</g>
	<g>
		<circle fill="#213B66" cx="98.243" cy="5.104" r="0.848"/>
		<path fill="#213B66" d="M98.875,47.076v-1.82c-0.019,0.334-0.291,0.605-0.632,0.605c-0.34,0-0.611-0.27-0.631-0.604v1.818
			c0.21,0.006,0.419,0.016,0.631,0.016S98.664,47.082,98.875,47.076z"/>
		<path fill="#213B66" d="M98.243,0.646c-12.825,0-23.223,10.396-23.223,23.223c0,12.184,9.383,22.168,21.314,23.139v-1.883
			c0-0.826,0.532-1.523,1.27-1.787v-2.721c-0.737-0.266-1.27-0.965-1.27-1.793v-3.479c0-0.828,0.532-1.527,1.27-1.793v-1.336
			c-1.345-0.254-2.41-1.295-2.699-2.629c-4.31-0.229-7.661-0.854-8.705-1.377c-1.304-0.65-0.652-1.463,0.162-3.092
			c0.813-1.627,1.302-1.303,2.929-3.904c1.628-2.607,2.279-11.395,2.605-12.371c0.2-0.604,2.024-1.084,3.732-1.359
			c0.61-0.232,0.921-0.6,0.921-2.193c0-1.977,0.188-2.068,1.693-2.068s1.693,0.092,1.693,2.068c0,1.594,0.311,1.961,0.922,2.193
			c1.707,0.275,3.53,0.756,3.732,1.359c0.326,0.977,0.977,9.764,2.604,12.371c1.627,2.602,2.115,2.277,2.929,3.904
			c0.814,1.629,1.466,2.441,0.162,3.092c-1.044,0.523-4.396,1.148-8.706,1.377c-0.288,1.334-1.353,2.375-2.698,2.629v1.336
			c0.737,0.264,1.27,0.965,1.27,1.793v3.479c0,0.828-0.532,1.527-1.27,1.793v2.721c0.737,0.264,1.27,0.961,1.27,1.787v1.883
			c11.932-0.971,21.314-10.955,21.314-23.139C121.466,11.043,111.068,0.646,98.243,0.646z"/>
		<path fill="#213B66" d="M98.243,35.787c-0.311,0-0.559-0.229-0.615-0.523c-0.003,0.027-0.016,0.053-0.016,0.082v3.35
			c0.02-0.334,0.291-0.602,0.631-0.602c0.341,0,0.613,0.268,0.632,0.604v-3.352c0-0.029-0.013-0.055-0.017-0.084
			C98.802,35.559,98.555,35.787,98.243,35.787z"/>
	</g>
	<g>
		<path fill="#213B66" d="M24.354-20.238c12.825,0,23.223-10.396,23.223-23.223S37.18-66.684,24.354-66.684
			c-12.826,0-23.223,10.396-23.223,23.223S11.528-20.238,24.354-20.238z M19.598-47.482c-1.084,0.625-4.052-0.998-4.925-1.871
			l-5.037-5.314c-0.919-0.918-0.18-1.67,0.74-2.588l0.185-0.184c0.918-0.92,1.669-1.658,2.588-0.74l5.314,5.035
			c0.873,0.875,2.497,3.844,1.869,4.926l4.022,4.021l4.021-4.021c-0.627-1.082,0.997-4.051,1.87-4.926l5.314-5.035
			c0.918-0.918,1.669-0.18,2.589,0.74l0.184,0.184c0.92,0.918,1.658,1.67,0.74,2.588l-5.038,5.314
			c-0.872,0.873-3.84,2.496-4.924,1.871l-4.022,4.021l13.372,13.373l0.473-0.473l0.561,0.559l-1.68,1.682l-0.56-0.561l0.473-0.473
			L24.354-42.727L10.982-29.354l0.473,0.473l-0.561,0.561l-1.68-1.682l0.56-0.559l0.474,0.473l13.371-13.373L19.598-47.482z"/>
	</g>
	<path fill="#213B66" d="M98.243-66.684c-12.826,0-23.223,10.396-23.223,23.223s10.396,23.223,23.223,23.223
		c12.825,0,23.223-10.396,23.223-23.223S111.068-66.684,98.243-66.684z M113.776-52.551l-0.755-0.754l-11.929,11.928l-0.669-0.668
		l-6.801,6.801l-0.445-0.445l-6.801,6.801l0.445,0.445l-0.892,0.891l-3.79-3.787l0.893-0.893l0.445,0.445l6.801-6.801l-0.446-0.445
		l6.801-6.801l-0.669-0.67l11.929-11.93l-0.754-0.754l1.338-1.336l6.637,6.635L113.776-52.551z"/>
	<g>
		<polygon fill="#213B66" points="168.896,-55.678 168.866,-54.803 169.22,-55.26 		"/>
		<polygon fill="#213B66" points="170.464,-53.66 169.646,-54.711 168.829,-53.66 169.646,-52.607 		"/>
		<polygon fill="#213B66" points="170.425,-56.809 168.935,-56.809 168.931,-56.727 169.646,-55.807 		"/>
		<polygon fill="#213B66" points="170.89,-54.207 171.706,-55.26 170.89,-56.313 170.073,-55.26 		"/>
		<polygon fill="#213B66" points="175.515,-51.455 175.474,-52.613 175.044,-52.061 		"/>
		<polygon fill="#213B66" points="168.79,-52.613 168.751,-51.455 169.22,-52.061 		"/>
		<path fill="#213B66" d="M167.888-36.109h0.336h7.816h0.338h0.336h0.51l-0.234-6.301h-0.492h-0.336h-0.336h-7.385h-0.336h-0.338
			h-0.492l-0.234,6.301h0.512H167.888z M170.933-39.623c0-1.041,0.537-1.887,1.199-1.887c0.664,0,1.201,0.846,1.201,1.887v2.613
			h-2.4V-39.623z"/>
		<path fill="#213B66" d="M166.837-30.561l-0.234,6.299h11.061l-0.234-6.299H166.837z M173.333-25.16h-2.4v-2.613
			c0-1.043,0.537-1.887,1.199-1.887c0.664,0,1.201,0.844,1.201,1.887V-25.16z"/>
		<polygon fill="#213B66" points="172.909,-56.809 171.354,-56.809 172.132,-55.807 		"/>
		<polygon fill="#213B66" points="172.132,-51.512 171.354,-50.51 172.909,-50.51 		"/>
		<polygon fill="#213B66" points="172.95,-53.66 172.132,-54.713 171.315,-53.66 172.132,-52.607 		"/>
		<polygon fill="#213B66" points="174.192,-52.061 173.376,-53.111 172.558,-52.061 173.374,-51.008 		"/>
		<polygon fill="#213B66" points="171.706,-52.061 170.89,-53.111 170.073,-52.061 170.89,-51.008 		"/>
		<polygon fill="#213B66" points="168.868,-50.51 170.425,-50.51 169.646,-51.512 		"/>
		<polygon fill="#213B66" points="173.802,-53.66 174.618,-52.607 175.435,-53.66 174.618,-54.711 		"/>
		<polygon fill="#213B66" points="175.333,-56.727 175.329,-56.809 173.841,-56.809 174.618,-55.807 		"/>
		<polygon fill="#213B66" points="175.399,-54.803 175.368,-55.678 175.044,-55.26 		"/>
		<polygon fill="#213B66" points="174.618,-51.512 173.841,-50.51 175.397,-50.51 		"/>
		<polygon fill="#213B66" points="173.376,-54.207 174.192,-55.26 173.374,-56.313 172.558,-55.26 		"/>
		<path fill="#213B66" d="M195.354-43.02c0-12.826-10.396-23.223-23.223-23.223c-12.825,0-23.223,10.396-23.223,23.223
			c0,10.629,7.143,19.582,16.888,22.34l0.132-3.582l0.234-6.299l0.205-5.549l0.234-6.301l0.242-6.6h-0.412v-0.602h0.885h0.697
			l0.031-0.939l0.076-2.199l0.023-0.693l0.016-0.453l0.021-0.596l0.068-2.014l0.037-1.051v-0.035h-0.029h-0.275
			c0-0.107,0.025-0.207,0.033-0.313c0.104-1.17,0.758-2.197,1.74-2.836v-0.676c0-1.313,1.064-2.375,2.375-2.375
			c1.313,0,2.375,1.063,2.375,2.375v0.676c0.982,0.639,1.637,1.666,1.74,2.836c0.01,0.105,0.033,0.205,0.033,0.313h-0.275h-0.029
			l0.002,0.035l0.035,1.051l0.07,2.014l0.02,0.596l0.016,0.453l0.023,0.693l0.076,2.199l0.033,0.939h0.697h0.885v0.602h-0.414
			l0.244,6.6l0.234,6.301l0.203,5.549l0.234,6.299l0.132,3.582C188.212-23.438,195.354-32.391,195.354-43.02z"/>
	</g>
	<g>
		<path fill="#213B66" d="M246.021-66.684c-12.824,0-23.223,10.396-23.223,23.223s10.398,23.223,23.223,23.223
			c12.826,0,23.223-10.396,23.223-23.223S258.847-66.684,246.021-66.684z M262.688-44.891c0.343,0.387,0.676,0.791,0.995,1.207
			c0.081,0.107,0.142,0.215,0.216,0.32c0.896,1.111,1.438,2.518,1.438,4.055c0,3.574-2.896,6.469-6.469,6.469
			c-2.837,0-5.237-1.828-6.11-4.367c-1.146,0.668-2.363,1.115-3.945,0.043c-0.68-0.459-0.999-1.201-1.05-2.096
			c-0.009-0.066-0.011-0.133-0.015-0.201c-0.008-0.064-0.01-0.133-0.014-0.201c-0.007-0.063-0.01-0.131-0.014-0.197
			c-0.008-0.066-0.01-0.135-0.014-0.203c-0.008-0.07-0.011-0.143-0.015-0.217c-0.005-0.041-0.004-0.086-0.007-0.131
			c0-0.012-0.002-0.027-0.002-0.041c-0.007-0.063-0.007-0.129-0.011-0.191c-0.009-0.066-0.011-0.135-0.014-0.201
			c-0.009-0.066-0.011-0.133-0.015-0.201c-0.008-0.064-0.01-0.133-0.014-0.199c-0.008-0.064-0.01-0.133-0.014-0.201
			c-0.008-0.064-0.011-0.133-0.015-0.201c-0.008-0.066-0.01-0.133-0.014-0.201c-0.007-0.063-0.01-0.131-0.014-0.199
			c-0.008-0.064-0.011-0.133-0.015-0.201c-0.008-0.064-0.01-0.133-0.014-0.201c-0.009-0.064-0.01-0.131-0.014-0.199
			c-0.008-0.064-0.011-0.133-0.015-0.201c-0.008-0.064-0.01-0.131-0.014-0.201c-0.007-0.064-0.01-0.133-0.014-0.199
			c-0.007-0.066-0.01-0.133-0.013-0.201c-0.009-0.063-0.011-0.131-0.015-0.201c-0.008-0.064-0.011-0.133-0.014-0.199
			c-0.009-0.066-0.01-0.135-0.015-0.201c-0.008-0.064-0.01-0.133-0.014-0.201c-0.013-0.1-0.009-0.205-0.012-0.309l-0.134-0.145
			c-0.458,0.217-0.972,0.33-1.513,0.283c-0.358-0.033-0.692-0.137-1-0.281l-0.133,0.143c-0.003,0.104,0.001,0.209-0.012,0.309
			c-0.004,0.068-0.006,0.137-0.014,0.201c-0.005,0.066-0.006,0.135-0.015,0.201c-0.003,0.066-0.006,0.135-0.014,0.199
			c-0.004,0.07-0.006,0.139-0.015,0.201c-0.003,0.068-0.006,0.135-0.013,0.201c-0.004,0.066-0.007,0.135-0.014,0.199
			c-0.004,0.07-0.006,0.137-0.014,0.201c-0.004,0.068-0.007,0.137-0.014,0.201c-0.005,0.068-0.006,0.135-0.015,0.199
			c-0.004,0.068-0.006,0.135-0.014,0.201c-0.004,0.068-0.007,0.137-0.015,0.201c-0.004,0.068-0.007,0.137-0.013,0.199
			c-0.005,0.068-0.007,0.135-0.015,0.201c-0.004,0.068-0.007,0.137-0.015,0.201c-0.004,0.068-0.006,0.137-0.014,0.201
			c-0.004,0.066-0.006,0.135-0.014,0.199c-0.004,0.068-0.006,0.135-0.015,0.201c-0.003,0.066-0.005,0.135-0.013,0.201
			c-0.005,0.063-0.005,0.129-0.012,0.191c0,0.014-0.002,0.029-0.002,0.041c-0.003,0.045-0.002,0.09-0.007,0.131
			c-0.004,0.074-0.007,0.146-0.015,0.217c-0.004,0.068-0.006,0.137-0.014,0.203c-0.004,0.064-0.007,0.135-0.014,0.197
			c-0.004,0.068-0.006,0.137-0.014,0.203c-0.004,0.066-0.006,0.133-0.015,0.199c-0.051,0.895-0.37,1.637-1.05,2.096
			c-1.582,1.072-2.8,0.625-3.945-0.043c-0.873,2.539-3.273,4.367-6.11,4.367c-3.572,0-6.469-2.895-6.469-6.469
			c0-1.537,0.542-2.943,1.438-4.055c0.074-0.105,0.135-0.213,0.216-0.32c0.319-0.416,0.652-0.82,0.995-1.207
			c0.046-0.053,0.09-0.105,0.135-0.156c0.044-0.053,0.086-0.102,0.13-0.152c0.047-0.055,0.092-0.111,0.14-0.164
			c0.043-0.049,0.085-0.102,0.13-0.148c0.042-0.049,0.083-0.102,0.128-0.152c0.044-0.049,0.088-0.104,0.133-0.154
			c0.046-0.053,0.089-0.105,0.136-0.158c0.043-0.049,0.085-0.104,0.129-0.15c0.091-0.109,0.182-0.217,0.273-0.32
			c0.042-0.047,0.081-0.098,0.124-0.145c0.043-0.053,0.087-0.105,0.132-0.156c0.044-0.049,0.085-0.102,0.13-0.15
			c0.045-0.053,0.09-0.105,0.134-0.158c0.047-0.051,0.09-0.107,0.137-0.156c0.089-0.105,0.177-0.211,0.268-0.314
			c0.043-0.049,0.085-0.1,0.129-0.15c0.042-0.051,0.085-0.102,0.13-0.152c0.043-0.051,0.085-0.102,0.13-0.152
			c0.046-0.051,0.09-0.107,0.137-0.158c0.045-0.053,0.09-0.109,0.137-0.16c0.042-0.049,0.083-0.1,0.126-0.146
			c0.044-0.053,0.089-0.105,0.134-0.158c0.044-0.049,0.085-0.1,0.129-0.148c0.961-1.111,2.04-2.07,3.123-2.73
			c0.1-0.115,0.201-0.229,0.314-0.332c0.105-0.127,0.214-0.246,0.334-0.357c0.105-0.125,0.214-0.244,0.336-0.354
			c0.104-0.127,0.213-0.248,0.335-0.357c0.594-0.723,1.482-1.195,2.492-1.195c1.787,0,3.234,1.449,3.234,3.236
			c0,0.359-0.072,0.699-0.18,1.021c-0.011,0.059-0.032,0.113-0.046,0.17c0.172,0.232,0.336,0.469,0.493,0.713l0.498-0.092
			c0.583-0.848,1.584-1.375,2.683-1.279c0.914,0.08,1.684,0.578,2.166,1.279l0.499,0.092c0.157-0.244,0.321-0.48,0.493-0.713
			c-0.014-0.057-0.035-0.111-0.046-0.17c-0.107-0.322-0.18-0.662-0.18-1.021c0-1.787,1.447-3.236,3.235-3.236
			c1.009,0,1.897,0.473,2.491,1.195c0.122,0.109,0.231,0.23,0.335,0.357c0.122,0.109,0.23,0.229,0.336,0.354
			c0.12,0.111,0.229,0.23,0.334,0.357c0.113,0.104,0.215,0.217,0.314,0.332c1.083,0.66,2.162,1.619,3.123,2.73
			c0.044,0.049,0.085,0.1,0.129,0.148c0.045,0.053,0.09,0.105,0.134,0.158c0.043,0.047,0.084,0.098,0.126,0.146
			c0.047,0.051,0.092,0.107,0.137,0.16c0.047,0.051,0.091,0.107,0.137,0.158c0.045,0.051,0.087,0.102,0.13,0.152
			c0.045,0.051,0.088,0.102,0.13,0.152c0.044,0.051,0.086,0.102,0.129,0.15c0.091,0.104,0.179,0.209,0.268,0.314
			c0.047,0.049,0.091,0.105,0.137,0.156c0.044,0.053,0.089,0.105,0.134,0.158c0.045,0.049,0.086,0.102,0.13,0.15
			c0.045,0.051,0.089,0.104,0.132,0.156c0.043,0.047,0.082,0.098,0.124,0.145c0.092,0.104,0.183,0.211,0.273,0.32
			c0.044,0.047,0.086,0.102,0.129,0.15c0.047,0.053,0.09,0.105,0.136,0.158c0.045,0.051,0.089,0.105,0.133,0.154
			c0.045,0.051,0.086,0.104,0.128,0.152c0.045,0.047,0.088,0.1,0.13,0.148c0.048,0.053,0.093,0.109,0.14,0.164
			c0.044,0.051,0.086,0.1,0.13,0.152C262.6-44.996,262.643-44.943,262.688-44.891z"/>
		<path fill="#213B66" d="M233.174-44.014c-2.599,0-4.704,2.104-4.704,4.705c0,2.055,1.318,3.797,3.154,4.438
			c0.486,0.17,1.007,0.268,1.55,0.268c2.195,0,4.032-1.504,4.554-3.535c0.096-0.377,0.152-0.766,0.152-1.17
			C237.88-41.91,235.773-44.014,233.174-44.014z"/>
		<path fill="#213B66" d="M258.869-44.014c-2.6,0-4.706,2.104-4.706,4.705c0,0.404,0.057,0.793,0.152,1.17
			c0.521,2.031,2.358,3.535,4.554,3.535c0.543,0,1.063-0.098,1.55-0.268c1.836-0.641,3.154-2.383,3.154-4.438
			C263.573-41.91,261.468-44.014,258.869-44.014z"/>
	</g>
	<g>
		<path fill="#213B66" d="M24.354-87.568c12.825,0,23.223-10.396,23.223-23.223s-10.397-23.223-23.223-23.223
			c-12.826,0-23.223,10.396-23.223,23.223S11.528-87.568,24.354-87.568z M34.601-93.084c-0.735,0-1.079,0.145-1.477,0.311
			c-0.42,0.178-0.897,0.377-1.801,0.377c-0.902,0-1.377-0.199-1.797-0.377c-0.398-0.166-0.743-0.311-1.479-0.311
			c-0.734,0-1.078,0.145-1.476,0.311c-0.421,0.178-0.896,0.377-1.802,0.377c-0.901,0-1.377-0.199-1.798-0.377
			c-0.396-0.166-0.74-0.311-1.474-0.311c-0.735,0-1.08,0.145-1.477,0.311c-0.421,0.178-0.896,0.377-1.8,0.377
			c-0.902,0-1.378-0.199-1.798-0.377c-0.398-0.166-0.741-0.311-1.476-0.311c-0.229,0-0.415-0.188-0.415-0.416
			s0.186-0.414,0.415-0.414c0.901,0,1.378,0.201,1.798,0.377c0.397,0.168,0.741,0.313,1.476,0.313c0.735,0,1.079-0.145,1.478-0.313
			c0.419-0.176,0.896-0.377,1.799-0.377c0.901,0,1.377,0.201,1.797,0.377c0.397,0.168,0.741,0.313,1.475,0.313
			c0.737,0,1.082-0.145,1.48-0.313c0.42-0.176,0.896-0.377,1.797-0.377c0.903,0,1.38,0.201,1.8,0.377
			c0.398,0.168,0.741,0.313,1.476,0.313c0.736,0,1.081-0.145,1.479-0.313c0.42-0.176,0.896-0.377,1.799-0.377
			c0.229,0,0.414,0.186,0.414,0.414S34.83-93.084,34.601-93.084z M26.207-131.479c-4.739,14.945-1.822,29.346-1.822,29.346
			s-10.298-0.822-10.845-3.92C11.564-117.246,26.207-131.479,26.207-131.479z M30.77-105.773c-0.102,0.535-1.459,2.223-5.011,3.521
			c-1.777-6.797-0.841-17.342-0.841-17.342C28.631-112.779,30.902-106.471,30.77-105.773z M39.148-104.078
			c-2.371,5.949-4.598,9.086-6.378,9.408c-0.354,0.143-0.753,0.268-1.447,0.268c-1.636,0-1.636-0.691-3.275-0.691
			c-1.637,0-1.637,0.691-3.277,0.691c-1.636,0-1.636-0.691-3.271-0.691c-1.639,0-1.639,0.691-3.276,0.691
			c-0.333,0-0.586-0.033-0.812-0.078c-7.932-3.037-12.347-11.236-12.347-11.236S23.256-96.969,39.148-104.078z"/>
	</g>
	<g>
		<circle fill="#213B66" cx="98.242" cy="-110.791" r="1.241"/>
		<path fill="#213B66" d="M93.64-107.412c-0.9,0.219-0.829,0.99-1.417,1.33c-0.359,0.207-0.682,0.254-0.965,0.113l0.056,0.096
			c0.069,0.123,0.028,0.277-0.093,0.348c-0.094,0.055-0.197,0.025-0.277-0.041l0.032,0.057l-0.814,0.469
			c1.631,2.287,4.198,3.855,7.142,4.135v-0.949h0.063c-0.096-0.037-0.173-0.113-0.173-0.221c0-0.141,0.113-0.254,0.253-0.254h0.149
			c-0.277-0.172-0.42-0.469-0.42-0.895c0-0.68,0.702-1.002,0.441-1.889c-0.112-0.379-0.522-0.662-0.522-0.662h-0.009v-1.553
			c-0.474-0.156-0.9-0.404-1.265-0.729l-1.342,0.775l-0.005-0.008C94.475-107.289,94.021-107.502,93.64-107.412z"/>
		<path fill="#213B66" d="M90.945-116.02c0.079-0.063,0.183-0.09,0.275-0.037c0.122,0.07,0.162,0.225,0.093,0.346l-0.056,0.096
			c0.283-0.137,0.606-0.09,0.965,0.117c0.588,0.34,0.517,1.109,1.417,1.326c0.381,0.094,0.831-0.119,0.833-0.121l0.006-0.008
			l1.343,0.775c0.365-0.324,0.791-0.57,1.265-0.729v-1.551h0.009c0,0,0.411-0.287,0.522-0.662c0.262-0.889-0.441-1.211-0.441-1.893
			c0-0.426,0.143-0.721,0.42-0.891h-0.149c-0.14,0-0.253-0.115-0.253-0.254c0-0.109,0.077-0.186,0.172-0.221h-0.063v-0.951
			c-2.943,0.279-5.511,1.85-7.142,4.135l0.814,0.469L90.945-116.02z"/>
		<path fill="#213B66" d="M90.036-107.139l0.03,0.053c-0.015-0.1,0.012-0.203,0.104-0.256c0.122-0.072,0.276-0.029,0.346,0.092
			l0.057,0.098c0.02-0.316,0.224-0.57,0.582-0.779c0.588-0.338,1.221,0.107,1.858-0.563c0.271-0.285,0.313-0.783,0.313-0.783
			l0.574,0.994l0.463,0.801l-1.041-1.803l1.328-0.768c-0.049-0.238-0.074-0.486-0.074-0.738c0-0.254,0.025-0.498,0.074-0.736
			l-1.329-0.77l0.005-0.01c0-0.004-0.043-0.496-0.313-0.781c-0.638-0.67-1.271-0.223-1.858-0.563
			c-0.358-0.207-0.562-0.463-0.582-0.777l-0.056,0.096c-0.07,0.121-0.225,0.162-0.346,0.092c-0.094-0.053-0.12-0.154-0.105-0.256
			l-0.03,0.053l-0.816-0.473c-0.578,1.26-0.908,2.652-0.908,4.125s0.33,2.865,0.908,4.123L90.036-107.139z"/>
		<polygon fill="#213B66" points="111.816,-118.627 111.762,-118.723 111.881,-118.516 		"/>
		<path fill="#213B66" d="M98.868-116.467c0.111,0.375,0.522,0.662,0.522,0.662h0.01v1.551c0.472,0.16,0.899,0.406,1.264,0.729
			l1.342-0.775l0.005,0.008c0,0,0.452,0.215,0.834,0.121c0.901-0.217,0.829-0.986,1.419-1.326c0.358-0.207,0.682-0.254,0.964-0.117
			l-0.056-0.096c-0.069-0.121-0.028-0.275,0.092-0.346c0.095-0.053,0.199-0.025,0.277,0.041l-0.031-0.057l0.813-0.469
			c-1.631-2.285-4.197-3.855-7.141-4.135v0.951H99.12c0.096,0.035,0.172,0.111,0.172,0.221c0,0.139-0.113,0.254-0.254,0.254h-0.149
			c0.277,0.17,0.421,0.465,0.421,0.891C99.31-117.678,98.605-117.355,98.868-116.467z"/>
		<polygon fill="#213B66" points="111.881,-103.066 111.762,-102.859 111.816,-102.953 		"/>
		<path fill="#213B66" d="M105.968-114.33l-0.056-0.098c-0.021,0.314-0.224,0.57-0.583,0.777c-0.588,0.34-1.218-0.107-1.858,0.563
			c-0.27,0.285-0.312,0.781-0.312,0.783l0.004,0.008l-1.328,0.77c0.048,0.238,0.074,0.482,0.074,0.736
			c0,0.252-0.026,0.5-0.074,0.738l1.328,0.768l-0.005,0.01c0,0.004,0.044,0.498,0.313,0.781c0.641,0.67,1.271,0.225,1.858,0.564
			c0.359,0.207,0.563,0.461,0.583,0.777l0.056-0.096c0.07-0.123,0.225-0.166,0.346-0.094c0.094,0.053,0.12,0.156,0.104,0.258
			l0.03-0.055l0.817,0.471c0.577-1.258,0.908-2.65,0.908-4.123s-0.331-2.865-0.908-4.125l-0.817,0.473l-0.03-0.053
			c0.016,0.102-0.012,0.203-0.104,0.256C106.192-114.17,106.038-114.209,105.968-114.33z"/>
		<path fill="#213B66" d="M105.541-105.566c-0.078,0.066-0.183,0.096-0.277,0.041c-0.121-0.07-0.161-0.225-0.092-0.348l0.056-0.096
			c-0.282,0.141-0.606,0.094-0.965-0.113c-0.589-0.34-0.517-1.111-1.418-1.33c-0.382-0.09-0.834,0.123-0.834,0.123l0.575-0.994
			l0.189-0.33l-0.77,1.332l-1.341-0.775c-0.365,0.322-0.793,0.572-1.265,0.729v1.553h-0.01c0,0-0.411,0.283-0.522,0.662
			c-0.263,0.887,0.44,1.209,0.44,1.889c0,0.426-0.143,0.723-0.42,0.895h0.149c0.141,0,0.254,0.113,0.254,0.254
			c0,0.107-0.076,0.184-0.172,0.221h0.063v0.949c2.943-0.279,5.51-1.85,7.141-4.135l-0.813-0.469L105.541-105.566z"/>
		<path fill="#213B66" d="M98.243-87.568c12.825,0,23.223-10.396,23.223-23.223s-10.397-23.223-23.223-23.223
			c-12.826,0-23.223,10.396-23.223,23.223S85.417-87.568,98.243-87.568z M80.963-100.814c-0.272-0.473,0.008-0.9,0.703-1.303
			c0.694-0.402,1.281-0.148,2.097-0.84c0.346-0.293,0.489-0.723,0.489-0.723l0.019,0.035c-0.068-0.121-0.028-0.275,0.093-0.344
			c0.1-0.059,0.212-0.025,0.29,0.049l-0.039-0.068l1.633-0.943c-0.865-1.768-1.364-3.744-1.364-5.84s0.499-4.074,1.363-5.842
			l-1.632-0.939l0.039-0.068c-0.078,0.072-0.19,0.105-0.29,0.049c-0.12-0.07-0.161-0.225-0.093-0.346l-0.019,0.033
			c0,0-0.144-0.428-0.489-0.719c-0.815-0.693-1.402-0.439-2.097-0.842c-0.695-0.4-0.976-0.83-0.703-1.303
			c0.273-0.471,0.785-0.445,1.481-0.043c0.694,0.402,0.769,1.035,1.774,1.395c0.427,0.154,0.868,0.064,0.868,0.064l-0.02,0.035
			c0.071-0.121,0.225-0.162,0.346-0.094c0.099,0.059,0.127,0.172,0.102,0.277l0.04-0.068l1.621,0.936
			c2.238-3.303,5.919-5.541,10.127-5.838v-1.881h0.08c-0.104-0.031-0.189-0.111-0.189-0.227c0-0.141,0.113-0.254,0.253-0.254h-0.039
			c0,0,0.299-0.338,0.38-0.781c0.19-1.053-0.321-1.436-0.321-2.238c0-0.801,0.231-1.258,0.776-1.258
			c0.547,0,0.778,0.457,0.778,1.258c0,0.803-0.513,1.186-0.321,2.238c0.08,0.443,0.38,0.781,0.38,0.781h-0.041
			c0.141,0,0.254,0.113,0.254,0.254c0,0.115-0.084,0.195-0.189,0.227h0.08v1.881c4.208,0.297,7.888,2.535,10.126,5.838l1.621-0.936
			l0.041,0.068c-0.025-0.105,0.002-0.219,0.103-0.277c0.119-0.068,0.273-0.027,0.345,0.094l-0.021-0.035c0,0,0.442,0.09,0.868-0.063
			c1.006-0.361,1.081-0.994,1.776-1.396c0.696-0.402,1.207-0.428,1.479,0.043c0.273,0.473-0.007,0.902-0.702,1.303
			c-0.696,0.402-1.282,0.148-2.098,0.842c-0.345,0.291-0.487,0.719-0.487,0.719l-0.021-0.033c0.069,0.121,0.028,0.275-0.093,0.346
			c-0.098,0.057-0.21,0.023-0.29-0.049l0.04,0.068l-1.632,0.939c0.864,1.768,1.362,3.746,1.362,5.842s-0.499,4.072-1.362,5.84
			l1.632,0.943l-0.04,0.068c0.079-0.074,0.19-0.107,0.29-0.049c0.121,0.068,0.162,0.223,0.093,0.344l0.021-0.035
			c0,0,0.143,0.428,0.487,0.723c0.815,0.691,1.401,0.439,2.098,0.84c0.695,0.402,0.976,0.83,0.702,1.303
			c-0.272,0.475-0.783,0.445-1.479,0.045c-0.695-0.402-0.771-1.037-1.776-1.398c-0.426-0.152-0.868-0.061-0.868-0.061l0.021-0.033
			c-0.071,0.119-0.226,0.16-0.345,0.09c-0.101-0.057-0.128-0.17-0.103-0.275l-0.041,0.07l-1.621-0.939
			c-2.238,3.305-5.918,5.543-10.126,5.838v1.883h-0.078c0.104,0.031,0.188,0.111,0.188,0.227c0,0.141-0.113,0.254-0.254,0.254h0.04
			c0,0-0.299,0.336-0.379,0.781c-0.191,1.053,0.321,1.434,0.321,2.236s-0.231,1.26-0.777,1.26s-0.777-0.457-0.777-1.26
			s0.512-1.184,0.32-2.236c-0.08-0.445-0.38-0.781-0.38-0.781h0.04c-0.14,0-0.253-0.113-0.253-0.254
			c0-0.115,0.084-0.195,0.188-0.227h-0.078v-1.883c-4.208-0.295-7.889-2.533-10.126-5.838l-1.622,0.939l-0.039-0.07
			c0.024,0.105-0.004,0.219-0.103,0.275c-0.121,0.07-0.275,0.029-0.346-0.09l0.02,0.033c0,0-0.441-0.092-0.868,0.061
			c-1.006,0.361-1.08,0.996-1.774,1.398C81.748-100.371,81.237-100.34,80.963-100.814z"/>
		<polygon fill="#213B66" points="84.723,-102.859 84.604,-103.066 84.669,-102.953 		"/>
		<polygon fill="#213B66" points="84.604,-118.516 84.723,-118.723 84.669,-118.627 		"/>
	</g>
	<g>
		<path fill="#213B66" d="M187.312-115.939h7.463c-2.343-10.348-11.587-18.074-22.643-18.074c-11.055,0-20.299,7.727-22.643,18.074
			h7.465h0.979h2.174h1.488h5.607c0.227,0,0.494-0.045,0.791-0.115c1.031,0.223,1.998,0.514,2.9,0.82
			c-1.486,0.557-2.678,0.988-3.691,0.988h-7.33h-0.943h-1.787h-0.875h-7.1c-0.169,1.127-0.258,2.281-0.258,3.455
			c0,1.176,0.089,2.328,0.258,3.457h7.1h0.875h1.787h0.943h7.33c1.014,0,2.205,0.432,3.691,0.99c-0.902,0.309-1.869,0.598-2.9,0.818
			c-0.297-0.07-0.564-0.115-0.791-0.115h-5.607h-1.488h-2.174h-0.979h-7.465c2.344,10.346,11.588,18.072,22.643,18.072
			c11.056,0,20.3-7.727,22.643-18.072h-7.463c0.279-0.516,0.508-1.08,0.688-1.693h7.098c0.169-1.129,0.258-2.281,0.258-3.457
			c0-1.174-0.089-2.328-0.258-3.455h-7.098C187.819-114.857,187.591-115.422,187.312-115.939z M158.651-108.182h-1.736
			c-0.174-0.791-0.266-1.658-0.266-2.607s0.092-1.816,0.266-2.609h1.736c-0.201,0.76-0.307,1.623-0.307,2.609
			C158.345-109.805,158.45-108.939,158.651-108.182z M169.542-116.541c-0.506-0.141-1.023-0.271-1.563-0.381
			c-1.125-0.23-2.32-0.377-3.596-0.377c-1.141,0-2.109,0.172-2.924,0.512h-2.887c1.311-1.445,3.268-2.207,5.811-2.207
			c2.412,0,4.584,0.486,6.451,1.068c0.453,0.141,0.883,0.285,1.297,0.43c0.58,0.205,1.129,0.408,1.631,0.596
			c0.332,0.125,0.654,0.248,0.963,0.359c0.574,0.209,1.096,0.381,1.547,0.486c0.297,0.07,0.564,0.115,0.791,0.115h5.607
			c0.688,0.328,1.291,0.855,1.723,1.693h-7.33c-1.014,0-2.205-0.432-3.691-0.988c-0.07-0.025-0.137-0.051-0.207-0.078
			c-0.332-0.125-0.678-0.254-1.033-0.385C171.329-115.99,170.462-116.283,169.542-116.541z M170.835-103.652
			c-1.867,0.58-4.039,1.066-6.451,1.066c-2.543,0-4.5-0.762-5.811-2.205h2.887c0.814,0.338,1.783,0.512,2.924,0.512
			c1.275,0,2.471-0.148,3.596-0.377c0.539-0.111,1.057-0.24,1.563-0.383c0.92-0.258,1.787-0.549,2.59-0.844
			c0.355-0.129,0.701-0.258,1.033-0.385c0.07-0.027,0.137-0.051,0.207-0.076c1.486-0.559,2.678-0.99,3.691-0.99h7.33
			c-0.432,0.838-1.035,1.367-1.723,1.693h-5.607c-0.227,0-0.494,0.045-0.791,0.115c-0.451,0.105-0.973,0.279-1.547,0.486
			c-0.309,0.113-0.631,0.234-0.963,0.359c-0.502,0.188-1.051,0.393-1.631,0.596C171.718-103.938,171.288-103.793,170.835-103.652z
			 M187.351-108.182c-0.064,0.293-0.139,0.578-0.227,0.848c-0.201,0.627-0.469,1.189-0.791,1.693
			c-0.193,0.305-0.406,0.59-0.641,0.85c-1.313,1.443-3.268,2.205-5.811,2.205c-2.412,0-4.584-0.486-6.453-1.066
			c0.213-0.078,0.43-0.16,0.631-0.234c0.822-0.311,1.613-0.605,2.227-0.77c1.125,0.229,2.32,0.377,3.596,0.377
			c1.139,0,2.109-0.174,2.922-0.512c0.518-0.215,0.969-0.496,1.355-0.85c0.496-0.449,0.893-1.01,1.178-1.693
			c0.109-0.264,0.197-0.549,0.277-0.848c0.201-0.758,0.307-1.623,0.307-2.607c0-0.986-0.105-1.85-0.307-2.609
			c-0.08-0.297-0.168-0.584-0.277-0.848c-0.285-0.682-0.682-1.242-1.178-1.693c-0.387-0.352-0.838-0.633-1.355-0.848
			c-0.813-0.34-1.783-0.512-2.922-0.512c-1.275,0-2.471,0.146-3.596,0.377c-0.613-0.164-1.404-0.459-2.227-0.77
			c-0.201-0.076-0.418-0.156-0.631-0.234c1.869-0.582,4.041-1.068,6.453-1.068c2.543,0,4.498,0.762,5.811,2.207
			c0.234,0.26,0.447,0.543,0.641,0.848c0.322,0.508,0.59,1.068,0.791,1.693c0.088,0.271,0.162,0.557,0.227,0.848
			c0.174,0.793,0.264,1.66,0.264,2.609S187.524-108.973,187.351-108.182z"/>
	</g>
	<g>
		<polygon fill="#213B66" points="246.021,-124.246 246.021,-126.578 243.024,-117.703 242.036,-114.777 242.624,-114.188 
			246.021,-110.791 246.021,-116.219 		"/>
		<polygon fill="#213B66" points="246.021,-97.334 246.021,-95.002 249.019,-103.881 250.007,-106.807 249.417,-107.395 
			246.021,-110.791 246.021,-105.365 		"/>
		<path fill="#213B66" d="M246.021-87.568c12.826,0,23.223-10.396,23.223-23.223s-10.396-23.223-23.223-23.223
			c-12.825,0-23.223,10.396-23.223,23.223S233.195-87.568,246.021-87.568z M235.271-100.041l3.158-6.377l2.406,0.813l0.813,2.406
			L235.271-100.041z M250.394-103.199l0.813-2.406l2.406-0.813l3.158,6.377L250.394-103.199z M256.771-121.541l-3.158,6.377
			l-2.406-0.813l-0.813-2.406L256.771-121.541z M241.647-118.383l-0.813,2.406l-2.406,0.813l-3.158-6.377L241.647-118.383z
			 M238.763-114.49l2.662-0.898l0.898-2.66l3.697-10.955l3.699,10.955l0.898,2.66l2.66,0.898l10.955,3.699l-10.955,3.699
			l-2.66,0.898l-0.898,2.66l-3.699,10.955l-3.697-10.955l-0.898-2.66l-2.662-0.898l-10.955-3.699L238.763-114.49z"/>
		<polygon fill="#213B66" points="259.476,-110.791 261.808,-110.791 252.933,-113.789 250.007,-114.775 250.007,-114.777 
			249.417,-114.188 246.021,-110.791 251.448,-110.791 		"/>
		<polygon fill="#213B66" points="242.036,-106.807 242.624,-107.395 246.021,-110.791 240.595,-110.791 232.565,-110.791 
			230.233,-110.791 239.11,-107.795 		"/>
	</g>
	<g>
		<polygon fill="#213B66" points="10.67,-177.41 11.458,-177.143 20.369,-174.135 20.958,-174.723 24.354,-178.119 11.409,-178.119 
			10.898,-178.119 10.634,-178.119 8.742,-178.119 8.566,-178.119 8.745,-178.059 		"/>
		<polygon fill="#213B66" points="24.354,-164.664 24.354,-164.398 24.354,-162.508 24.354,-162.332 24.414,-162.51 
			25.064,-164.436 25.33,-165.223 28.339,-174.135 27.751,-174.723 24.354,-178.119 24.354,-165.174 		"/>
		<polygon fill="#213B66" points="37.81,-178.119 38.075,-178.119 39.967,-178.119 40.142,-178.119 39.964,-178.18 38.039,-178.83 
			37.25,-179.096 28.339,-182.104 27.751,-181.516 24.354,-178.119 37.3,-178.119 		"/>
		<polygon fill="#213B66" points="24.354,-191.574 24.354,-191.84 24.354,-193.732 24.354,-193.906 24.294,-193.729 
			23.645,-191.805 23.378,-191.016 20.369,-182.104 20.958,-181.516 24.354,-178.119 24.354,-191.064 		"/>
		<path fill="#213B66" d="M24.354-154.896c12.825,0,23.223-10.396,23.223-23.223s-10.397-23.223-23.223-23.223
			c-12.826,0-23.223,10.396-23.223,23.223S11.528-154.896,24.354-154.896z M8.039-176.691l0.8,0.27
			c0.788,7.254,6.563,13.029,13.817,13.818l0.271,0.799C15.029-162.49,8.725-168.795,8.039-176.691z M10.854-175.74l0.832,0.279
			c1.05,5.008,5.001,8.959,10.009,10.01l0.28,0.832C16.315-165.615,11.849-170.08,10.854-175.74z M25.782-161.805l0.27-0.799
			c7.254-0.789,13.029-6.564,13.818-13.818l0.8-0.27C39.983-168.795,33.68-162.49,25.782-161.805z M26.732-164.619l0.281-0.832
			c5.008-1.051,8.959-5.002,10.009-10.01l0.832-0.279C36.859-170.08,32.393-165.615,26.732-164.619z M40.67-179.547l-0.8-0.27
			c-0.789-7.254-6.564-13.029-13.818-13.818l-0.27-0.801C33.68-193.748,39.983-187.445,40.67-179.547z M37.854-180.498l-0.832-0.281
			c-1.05-5.008-5.001-8.959-10.009-10.008l-0.281-0.832C32.393-190.625,36.859-186.158,37.854-180.498z M22.927-194.436
			l-0.271,0.801c-7.254,0.789-13.029,6.564-13.817,13.818l-0.8,0.27C8.725-187.445,15.029-193.748,22.927-194.436z M21.976-191.619
			l-0.28,0.832c-5.008,1.049-8.959,5-10.009,10.008l-0.832,0.281C11.849-186.158,16.315-190.625,21.976-191.619z M7.998-178.746
			l0.789-0.266l1.939-0.656l0.827-0.279l8.203-2.77l2.771-8.203l0.278-0.826l0.655-1.939l0.267-0.789l0.627-1.857l0.627,1.857
			l0.266,0.789l0.655,1.939l0.279,0.826l2.77,8.203l8.204,2.77l0.826,0.279l1.939,0.656l0.789,0.266l1.856,0.627l-1.856,0.627
			l-0.789,0.266l-1.939,0.656l-0.826,0.277l-8.204,2.771l-2.77,8.203l-0.279,0.826l-0.655,1.939l-0.266,0.789l-0.627,1.857
			l-0.627-1.857l-0.267-0.789l-0.655-1.939l-0.278-0.826l-2.771-8.203l-8.203-2.771l-0.827-0.277l-1.939-0.656l-0.789-0.266
			l-1.856-0.627L7.998-178.746z"/>
	</g>
	<g>
		<path fill="#213B66" d="M113.618-176.697c-2.834,2.6-9.176,5.852-12.989,3.307c-2.657-1.77-1.772-5.078,0.708-7.557
			c-7.558,0.709-12.045,7.748-17.737,7.748c-2.941,0-3.755-2.08-3.755-2.08c-1.58,1.027-3.119,1.277-4.474,1.166
			c1.899,10.916,11.413,19.217,22.872,19.217c11.5,0,21.042-8.361,22.893-19.336C116.757-173.244,114.158-174.898,113.618-176.697z"
			/>
		<path fill="#213B66" d="M87.328-180.113c-2.21,0-5.524,3.383-3.591,4.352c2.98,1.49,6.005-3.965,11.447-6.287
			c4.855-2.07,13.144-2.762,14.415,0.709c-2.378-1.813-8.18,2.193-4.461,4.916c1.456,0.807,5.815,0.869,8.617-2.342
			c2.11,2.451,4.568,3.615,7.519,3.582c0.121-0.963,0.191-1.941,0.191-2.936c0-12.826-10.397-23.223-23.223-23.223
			c-12.826,0-23.223,10.396-23.223,23.223c0,1.049,0.076,2.08,0.211,3.092c1.555-0.078,3.237-0.598,4.773-1.938
			C81.871-178.594,84.43-180.529,87.328-180.113z"/>
	</g>
	<g>
		<circle fill="#213B66" cx="172.132" cy="-192.596" r="2.154"/>
		<path fill="#213B66" d="M172.132-154.896c12.826,0,23.223-10.396,23.223-23.223s-10.396-23.223-23.223-23.223
			s-23.223,10.396-23.223,23.223S159.306-154.896,172.132-154.896z M160.597-173.768c0.616-1.848,1.587-3.34,1.854-3.324
			c0.204,0.012,0.32,1.436,0.817,2.889c0.629,1.836,1.989,3.57,1.826,3.814c-0.146,0.221-0.748,0.189-1.465,0.094
			c0.679,1.568,1.586,3.113,2.801,3.113c1.604,0,3.297-0.629,3.475-3.143c0.116-1.641,0.347-9.346,0.492-14.504
			c-2.458-0.137-6.472-0.41-6.472-0.41c-0.092-0.006-0.166-0.086-0.166-0.178v-1.711c0-0.092,0.074-0.172,0.166-0.178
			c0,0,4.103-0.279,6.553-0.414c0.02-0.738,0.035-1.297,0.043-1.607c-1.205-0.594-2.034-1.834-2.034-3.27
			c0-2.014,1.632-3.645,3.646-3.645s3.646,1.631,3.646,3.645c0,1.436-0.829,2.676-2.034,3.27c0.008,0.311,0.023,0.869,0.043,1.607
			c2.451,0.135,6.542,0.414,6.542,0.414c0.092,0.006,0.166,0.086,0.166,0.178v1.711c0,0.092-0.074,0.172-0.166,0.178
			c0,0-4.002,0.273-6.461,0.41c0.146,5.158,0.376,12.863,0.492,14.504c0.178,2.514,1.871,3.143,3.475,3.143
			c1.215,0,2.122-1.545,2.801-3.113c-0.717,0.096-1.318,0.127-1.465-0.094c-0.163-0.244,1.197-1.979,1.826-3.814
			c0.497-1.453,0.613-2.877,0.817-2.889c0.267-0.016,1.237,1.477,1.854,3.324c0.455,1.363,0.759,3.658,0.654,3.816
			c-0.088,0.133-0.599,0.02-1.027-0.133c-0.519,1.73-1.555,4.326-3.321,5.416c-2.763,1.707-6.326,3.143-7.841,4.67
			c-1.515-1.527-5.078-2.963-7.841-4.67c-1.767-1.09-2.803-3.686-3.321-5.416c-0.429,0.152-0.939,0.266-1.027,0.133
			C159.838-170.109,160.142-172.404,160.597-173.768z"/>
	</g>
	<g>
		<path fill="#213B66" d="M250.883-169.244l3.545,3.547c1.578-1.072,2.942-2.436,4.015-4.014l-3.546-3.547
			C253.968-171.568,252.571-170.172,250.883-169.244z"/>
		<path fill="#213B66" d="M241.158-186.994l-3.545-3.547c-1.578,1.07-2.941,2.434-4.014,4.012l3.546,3.547
			C238.074-184.67,239.47-186.066,241.158-186.994z"/>
		<path fill="#213B66" d="M236.672-178.119c0,5.154,4.194,9.348,9.349,9.348s9.349-4.193,9.349-9.348s-4.194-9.35-9.349-9.35
			S236.672-183.273,236.672-178.119z"/>
		<path fill="#213B66" d="M254.896-182.982l3.545-3.547c-1.072-1.576-2.436-2.941-4.013-4.012l-3.546,3.547
			C252.572-186.066,253.968-184.67,254.896-182.982z"/>
		<path fill="#213B66" d="M237.613-165.697l3.545-3.547c-1.688-0.928-3.084-2.324-4.013-4.012l-3.546,3.545
			C234.672-168.133,236.035-166.768,237.613-165.697z"/>
		<path fill="#213B66" d="M246.021-154.896c12.826,0,23.223-10.396,23.223-23.223s-10.396-23.223-23.223-23.223
			s-23.223,10.396-23.223,23.223S233.194-154.896,246.021-154.896z M246.021-193.9c8.702,0,15.781,7.078,15.781,15.781
			c0,8.701-7.079,15.781-15.781,15.781s-15.781-7.08-15.781-15.781C230.239-186.822,237.318-193.9,246.021-193.9z"/>
	</g>
</g>
</svg>
